<svg xmlns="http://www.w3.org/2000/svg" width="720" height="720"><path fill="#FFF" d="M0 0h720v720H0z"/><linearGradient id="a" gradientUnits="userSpaceOnUse" x1="512.5" y1="402.346" x2="512.5" y2="652.318"><stop offset="0" stop-color="#d6eef9"/><stop offset=".006" stop-color="#d6eef9"/><stop offset=".606" stop-color="#ebf7fd"/><stop offset="1" stop-color="#f3fafe"/></linearGradient><path fill="url(#a)" d="M328.667 402h367.667v291H328.667z"/><radialGradient id="b" cx="500.618" cy="460.212" r="79.956" gradientUnits="userSpaceOnUse"><stop offset="0" stop-color="#fff"/><stop offset=".802" stop-color="#c6d1d7"/><stop offset="1" stop-color="#dbe2e6"/></radialGradient><circle fill="url(#b)" stroke="#000" stroke-width=".574" stroke-linecap="round" stroke-linejoin="round" cx="522.867" cy="493.901" r="40.863"/><radialGradient id="c" cx="501.767" cy="472.075" r="59.797" gradientUnits="userSpaceOnUse"><stop offset="0" stop-color="#fff"/><stop offset=".802" stop-color="#c6d1d7"/><stop offset="1" stop-color="#dbe2e6"/></radialGradient><circle fill="url(#c)" stroke="#000" stroke-width=".287" stroke-linecap="round" stroke-linejoin="round" cx="522.867" cy="493.901" r="30.332"/><circle fill="#8EA3AF" stroke="#000" stroke-width=".574" cx="522.868" cy="493.901" r="4.736"/><radialGradient id="d" cx="505.783" cy="477.049" r="83.345" gradientUnits="userSpaceOnUse"><stop offset="0" stop-color="#fff"/><stop offset=".802" stop-color="#c6d1d7"/><stop offset="1" stop-color="#dbe2e6"/></radialGradient><path fill="url(#d)" stroke="#000" stroke-width=".287" stroke-linecap="round" stroke-linejoin="round" d="M498.848 460.842l1.481 18.654s-.232-1.305 2.849-6.272c3.082-4.968 4.504-5.583 4.504-5.583l-8.832-6.799h-.002z"/><radialGradient id="e" cx="505.784" cy="477.049" r="83.34" gradientUnits="userSpaceOnUse"><stop offset="0" stop-color="#fff"/><stop offset=".802" stop-color="#c6d1d7"/><stop offset="1" stop-color="#dbe2e6"/></radialGradient><path fill="url(#e)" stroke="#000" stroke-width=".287" stroke-linecap="round" stroke-linejoin="round" d="M484.004 481.274l12.162 14.221s-.955-.919-1.382-6.749.362-7.163.362-7.163l-11.142-.309z"/><radialGradient id="f" cx="505.785" cy="477.049" r="83.338" gradientUnits="userSpaceOnUse"><stop offset="0" stop-color="#fff"/><stop offset=".802" stop-color="#c6d1d7"/><stop offset="1" stop-color="#dbe2e6"/></radialGradient><path fill="url(#f)" stroke="#000" stroke-width=".287" stroke-linecap="round" stroke-linejoin="round" d="M484.004 506.528l18.198 4.356s-1.312-.182-5.085-4.646c-3.772-4.467-3.918-6.009-3.918-6.009l-9.195 6.299z"/><radialGradient id="g" cx="505.784" cy="477.048" r="83.34" gradientUnits="userSpaceOnUse"><stop offset="0" stop-color="#fff"/><stop offset=".802" stop-color="#c6d1d7"/><stop offset="1" stop-color="#dbe2e6"/></radialGradient><path fill="url(#g)" stroke="#000" stroke-width=".287" stroke-linecap="round" stroke-linejoin="round" d="M498.848 526.96l17.284-7.173s-1.17.625-6.846-.77c-5.677-1.396-6.701-2.559-6.701-2.559l-3.737 10.502z"/><radialGradient id="h" cx="505.784" cy="477.048" r="83.339" gradientUnits="userSpaceOnUse"><stop offset="0" stop-color="#fff"/><stop offset=".802" stop-color="#c6d1d7"/><stop offset="1" stop-color="#dbe2e6"/></radialGradient><path fill="url(#h)" stroke="#000" stroke-width=".287" stroke-linecap="round" stroke-linejoin="round" d="M522.867 534.765l9.767-15.962s-.579 1.192-5.991 3.4c-5.414 2.209-6.926 1.869-6.926 1.869l3.15 10.693z"/><radialGradient id="i" cx="505.782" cy="477.048" r="83.341" gradientUnits="userSpaceOnUse"><stop offset="0" stop-color="#fff"/><stop offset=".802" stop-color="#c6d1d7"/><stop offset="1" stop-color="#dbe2e6"/></radialGradient><path fill="url(#i)" stroke="#000" stroke-width=".287" stroke-linecap="round" stroke-linejoin="round" d="M546.886 526.96l-1.481-18.653s.233 1.305-2.847 6.272c-3.082 4.969-4.505 5.583-4.505 5.583l8.833 6.798z"/><radialGradient id="j" cx="505.784" cy="477.049" r="83.337" gradientUnits="userSpaceOnUse"><stop offset="0" stop-color="#fff"/><stop offset=".802" stop-color="#c6d1d7"/><stop offset="1" stop-color="#dbe2e6"/></radialGradient><path fill="url(#j)" stroke="#000" stroke-width=".287" stroke-linecap="round" stroke-linejoin="round" d="M561.729 506.529l-12.161-14.222s.954.92 1.382 6.749c.428 5.831-.362 7.165-.362 7.165l11.141.308z"/><radialGradient id="k" cx="505.784" cy="477.049" r="83.337" gradientUnits="userSpaceOnUse"><stop offset="0" stop-color="#fff"/><stop offset=".802" stop-color="#c6d1d7"/><stop offset="1" stop-color="#dbe2e6"/></radialGradient><path fill="url(#k)" stroke="#000" stroke-width=".287" stroke-linecap="round" stroke-linejoin="round" d="M561.73 481.274l-18.198-4.356s1.312.183 5.086 4.646c3.771 4.467 3.917 6.009 3.917 6.009l9.195-6.299z"/><radialGradient id="l" cx="505.784" cy="477.049" r="83.337" gradientUnits="userSpaceOnUse"><stop offset="0" stop-color="#fff"/><stop offset=".802" stop-color="#c6d1d7"/><stop offset="1" stop-color="#dbe2e6"/></radialGradient><path fill="url(#l)" stroke="#000" stroke-width=".287" stroke-linecap="round" stroke-linejoin="round" d="M546.887 460.843l-17.283 7.172s1.168-.624 6.845.771c5.678 1.396 6.701 2.558 6.701 2.558l3.737-10.501z"/><radialGradient id="m" cx="505.784" cy="477.05" r="83.337" gradientUnits="userSpaceOnUse"><stop offset="0" stop-color="#fff"/><stop offset=".802" stop-color="#c6d1d7"/><stop offset="1" stop-color="#dbe2e6"/></radialGradient><path fill="url(#m)" stroke="#000" stroke-width=".287" stroke-linecap="round" stroke-linejoin="round" d="M522.868 453.038L513.102 469s.578-1.192 5.989-3.4c5.415-2.208 6.926-1.869 6.926-1.869l-3.149-10.693z"/><path fill="none" stroke="#000" stroke-width=".574" stroke-linecap="round" stroke-linejoin="round" d="M498.822 460.863l1.507 18.633M522.868 453.038L513.102 469M546.887 460.843l-17.283 7.173M561.729 481.275l-18.197-4.356M561.729 506.531l-12.162-14.222M546.883 526.961l-1.48-18.653M522.863 534.764l9.768-15.959M498.845 526.959l17.284-7.171M484.002 506.526l18.198 4.359M484.004 481.271l12.16 14.223"/><path fill="none" stroke="#29ABE2" stroke-width="1.5" d="M447 458.852h64.416"/><path fill="#29ABE2" d="M510.321 462.603l6.478-3.74-6.478-3.739z"/><g><path fill="none" stroke="#00B42E" stroke-width="1.5" d="M570.007 480.347c3.306 11.488 2.446 24.207-3.382 35.714-6.119 12.084-16.557 20.543-28.484 24.451"/><path fill="#00B42E" d="M538.013 536.606l-4.992 5.571 7.321 1.536z"/></g><g><linearGradient id="n" gradientUnits="userSpaceOnUse" x1="248.236" y1="199.886" x2="358.336" y2="390.585"><stop offset="0" stop-color="#fff"/><stop offset=".637" stop-color="#e0e6e9"/><stop offset=".923" stop-color="#b7c4cc"/><stop offset="1" stop-color="#cad4d9"/></linearGradient><path fill="url(#n)" stroke="#2A2A2A" stroke-width=".575" d="M482.096 193.729c-30.635-53.061-98.484-71.242-151.545-40.606-.978.563-1.938 1.144-2.89 1.732l-160.949 93.086-.034.019c-53.061 30.635-71.242 98.484-40.606 151.546 29.377 50.882 92.972 69.683 144.935 44.129l.003-.003a113.57 113.57 0 0 0 6.609-3.52 110.88 110.88 0 0 0 6.427-4.014l152.706-88.242c1.59-.819 3.17-1.678 4.738-2.582 53.061-30.634 71.242-98.484 40.606-151.545z"/></g><g><path fill="#FFF" stroke="#2A2A2A" stroke-width=".575" d="M307.184 400.667c-5.451 16.452-10.537 29.418-18.737 32.889l74.468 22.841-55.731-55.73z"/><linearGradient id="o" gradientUnits="userSpaceOnUse" x1="154.666" y1="223.645" x2="332.239" y2="467.305"><stop offset="0" stop-color="#fff"/><stop offset=".659" stop-color="#e8edef"/><stop offset=".923" stop-color="#c6d1d7"/><stop offset="1" stop-color="#dae1e5"/></linearGradient><path fill="url(#o)" stroke="#2A2A2A" stroke-width=".575" d="M236.804 207.47c-23.026 13.275-50.637 41.784-77.676 82.388a514.07 514.07 0 0 0-22.766 37.552l41.652-132.923 58.79 12.983z"/><linearGradient id="p" gradientUnits="userSpaceOnUse" x1="132.338" y1="239.917" x2="309.912" y2="483.578"><stop offset="0" stop-color="#fff"/><stop offset=".659" stop-color="#e8edef"/><stop offset=".923" stop-color="#c6d1d7"/><stop offset="1" stop-color="#dae1e5"/></linearGradient><path fill="url(#p)" stroke="#2A2A2A" stroke-width=".575" d="M214.852 244.567c-4.162 6.324-8.133 12.926-12.128 20.103-22.225 39.933-36.874 84.597-41.876 122.936l17.167-107.33 36.837-35.709z"/><linearGradient id="q" gradientUnits="userSpaceOnUse" x1="203.186" y1="352.955" x2="307.392" y2="457.161"><stop offset="0" stop-color="#fff"/><stop offset="1" stop-color="#c6d1d7"/></linearGradient><path fill="url(#q)" stroke="#2A2A2A" stroke-width=".575" d="M292.345 442.195l-35.633 7.273c-.092-4.522.546-15.159.425-34.804-.091-14.896-.125-32.289-.202-50.949l35.41 78.48z"/><linearGradient id="r" gradientUnits="userSpaceOnUse" x1="189.277" y1="327.541" x2="237.459" y2="410.994"><stop offset="0" stop-color="#fff"/><stop offset="1" stop-color="#c6d1d7"/></linearGradient><path fill="url(#r)" stroke="#2A2A2A" stroke-width=".575" d="M222.498 304.045c-19.722 51.482-27.358 100.983-18.43 130.152l17.616-59.306.814-70.846z"/></g><g><linearGradient id="s" gradientUnits="userSpaceOnUse" x1="204.637" y1="161.398" x2="410.652" y2="518.227"><stop offset="0" stop-color="#fff"/><stop offset=".659" stop-color="#e8edef"/><stop offset=".923" stop-color="#c6d1d7"/><stop offset="1" stop-color="#dae1e5"/></linearGradient><path fill="url(#s)" d="M345.594 458.793c-20.538-.002-40.418-8.987-53.478-16.525-66.308-38.286-120.252-131.72-120.252-208.283 0-28.222 7.293-51.198 21.094-66.446 13.834-16.855 33.027-26.527 52.645-26.527 1.459 0 2.943.052 4.409.154 23.234 1.628 34.37 5.007 54.163 16.434 2.962 1.711 5.261 3.24 8.171 5.174l.387.258.392.26-.408.229-11.669 6.548-56.509 33.156c-12.013 9.549-18.646 26.615-18.646 48.033 0 49.84 35.117 110.663 78.281 135.583 12.264 7.083 24 10.674 34.877 10.674 6.279 0 12.113-1.229 17.341-3.649l5.8-3.354 61.678-35.238.4-.229.029.462c.168 2.756.152 5.301.137 7.993-.006.787-.01 1.58-.01 2.384 0 31.028-8.676 55.389-25.09 70.453-9.689 11.603-22.973 18.272-43.045 21.598a65.8 65.8 0 0 1-10.697.858z"/><path fill="#2A2A2A" d="M245.606 141.297c1.446 0 2.91.051 4.385.154 23.659 1.657 34.606 5.177 54.041 16.397 3.087 1.783 5.514 3.41 8.543 5.423l-11.669 6.548-56.512 33.158c-11.659 9.263-18.788 25.751-18.788 48.28 0 50.013 35.111 110.826 78.425 135.834 12.586 7.268 24.479 10.71 35.021 10.71 6.361 0 12.23-1.254 17.462-3.677l5.824-3.363s0-.002.002-.002l61.672-35.237c.219 3.566.127 6.856.127 10.359 0 31.884-9.326 55.861-24.994 70.241v.003c-8.936 10.694-21.213 17.932-42.9 21.524a65.108 65.108 0 0 1-10.651.855c-18.459 0-37.346-7.26-53.333-16.489-66.336-38.3-120.11-131.437-120.11-208.032 0-29.093 7.764-51.606 21.021-66.252h-.001c12.326-15.014 30.69-26.434 52.435-26.434m0-.574c-19.705 0-38.979 9.711-52.88 26.644-13.83 15.28-21.15 38.323-21.15 66.618 0 37.144 12.521 79.287 35.256 118.664 22.735 39.378 52.972 71.293 85.142 89.866 13.09 7.557 33.019 16.565 53.62 16.565 3.674 0 7.289-.29 10.745-.862 20.134-3.336 33.47-10.031 43.234-21.707 16.447-15.122 25.143-39.544 25.143-70.629 0-.804.004-1.596.008-2.382.018-2.698.033-5.246-.137-8.012l-.057-.922-.803.458-61.672 35.237-5.806 3.354c-5.185 2.396-10.97 3.611-17.196 3.611-10.829 0-22.515-3.577-34.733-10.633-43.085-24.875-78.138-85.587-78.138-135.336 0-21.311 6.583-38.286 18.539-47.805l56.477-33.138 11.659-6.542.819-.459-.783-.52-.434-.289c-2.783-1.85-5.186-3.447-8.14-5.153-19.841-11.455-31.002-14.842-54.288-16.473a63.59 63.59 0 0 0-4.425-.155z"/><path opacity=".1" fill="#001321" d="M423.668 355.352L362.34 390.76c-.002 0-.002.002-.002.002l-5.824 3.363c-13.9 6.438-32.302 4.62-52.482-7.033-43.314-25.008-78.425-85.821-78.425-135.834 0-22.529 7.128-39.017 18.788-48.28l56.917-32.86 11.628-6.749c-2.941-1.946-6.003-3.642-8.908-5.52-13.051-8.433-23.918-11.907-35.403-14.205-5.147-.958-10.818-1.614-17.507-2.109-39.876-.463-67.335 31.002-67.335 85.734 0 76.595 53.774 169.734 120.11 208.032 39.21 22.64 74.032 21.041 95.952.132.309-.292.611-.596.912-.896a59.717 59.717 0 0 0 2.709-2.857l.031-.034c12.943-14.658 20.502-36.972 20.502-65.687.001-3.504-.114-7.042-.335-10.607z"/></g><g><linearGradient id="t" gradientUnits="userSpaceOnUse" x1="262.569" y1="135.032" x2="426.157" y2="418.375"><stop offset="0" stop-color="#fff"/><stop offset=".659" stop-color="#e8edef"/><stop offset=".923" stop-color="#c6d1d7"/><stop offset="1" stop-color="#dae1e5"/></linearGradient><path fill="url(#t)" stroke="#2A2A2A" stroke-width=".575" d="M436.752 347.857l-74.826 43.238c-.766.47-1.529.925-2.286 1.362l58.827 13.024 18.473-57.725-.188.101z"/><linearGradient id="u" gradientUnits="userSpaceOnUse" x1="335.281" y1="187.668" x2="318.041" y2="154.721"><stop offset="0" stop-color="#dae1e5"/><stop offset="1" stop-color="#c6d1d7"/></linearGradient><path fill="url(#u)" stroke="#2A2A2A" stroke-width=".575" d="M327.661 154.854c.952-.588 1.912-1.169 2.89-1.732.721-.416 1.445-.819 2.171-1.217l-28.548 6.029 3.755 8.333 19.732-11.413z"/></g><g><linearGradient id="v" gradientUnits="userSpaceOnUse" x1="220.669" y1="159.215" x2="384.259" y2="442.561"><stop offset="0" stop-color="#fff"/><stop offset=".659" stop-color="#e8edef"/><stop offset=".923" stop-color="#c6d1d7"/><stop offset="1" stop-color="#dae1e5"/></linearGradient><path fill="url(#v)" stroke="#2A2A2A" stroke-width=".575" d="M307.96 228.492l-118.153-40.814 58.7 12.901c-5.309 3.105 5.031 9.672 32.141 19.151 8.198 2.866 17.242 5.77 27.312 8.762z"/><linearGradient id="w" gradientUnits="userSpaceOnUse" x1="232.761" y1="231.965" x2="327.932" y2="396.807"><stop offset="0" stop-color="#fff"/><stop offset="1" stop-color="#c6d1d7"/></linearGradient><path fill="url(#w)" stroke="#2A2A2A" stroke-width=".575" d="M189.809 272.977l142.331 15.71c-37.987-13.517-72.956-29.77-95.468-43.849-3.911-2.447-7.292-4.756-10.151-6.922l-36.712 35.061"/><linearGradient id="x" gradientUnits="userSpaceOnUse" x1="260.402" y1="136.275" x2="423.993" y2="419.623"><stop offset="0" stop-color="#fff"/><stop offset=".659" stop-color="#e8edef"/><stop offset=".923" stop-color="#c6d1d7"/><stop offset="1" stop-color="#dae1e5"/></linearGradient><path fill="url(#x)" stroke="#2A2A2A" stroke-width=".575" d="M308.214 166.903l-74.735-23.417 78.347 29.433c-.936-3.611-2.157-5.597-3.612-6.016z"/><path fill="none" stroke="#2A2A2A" stroke-width=".575" d="M411.312 362.558a217.751 217.751 0 0 0 10.598-6.125l-10.598 6.125z"/><linearGradient id="y" gradientUnits="userSpaceOnUse" x1="251.882" y1="141.192" x2="415.474" y2="424.543"><stop offset="0" stop-color="#fff"/><stop offset=".659" stop-color="#e8edef"/><stop offset=".923" stop-color="#c6d1d7"/><stop offset="1" stop-color="#dae1e5"/></linearGradient><path fill="url(#y)" stroke="#2A2A2A" stroke-width=".575" d="M441.49 345.275a113.973 113.973 0 0 1-4.738 2.582l-14.842 8.576a219.407 219.407 0 0 1-10.598 6.125c-25.256 13.689-56.869 24.792-92 31.637l13.642 13.643 41.84 41.839 71.76-107.508a114.283 114.283 0 0 1-5.064 3.106z"/><linearGradient id="z" gradientUnits="userSpaceOnUse" x1="264.789" y1="291.35" x2="368.996" y2="395.558"><stop offset="0" stop-color="#fff"/><stop offset="1" stop-color="#c6d1d7"/></linearGradient><path fill="url(#z)" stroke="#2A2A2A" stroke-width=".575" d="M428.674 350.547l-124.536 84.841-35.359-78.295c21.175 6.174 45.105 9.656 70.438 9.662 33.262.009 64.09-6.001 89.457-16.208z"/><linearGradient id="A" gradientUnits="userSpaceOnUse" x1="265.138" y1="283.743" x2="313.319" y2="367.195"><stop offset="0" stop-color="#fff"/><stop offset="1" stop-color="#c6d1d7"/></linearGradient><path fill="url(#A)" stroke="#2A2A2A" stroke-width=".575" d="M375.285 335.347l-141.808 32.735.813-70.352c43.5 14.86 96.364 29.167 140.995 37.617z"/><linearGradient id="B" gradientUnits="userSpaceOnUse" x1="276.575" y1="190.939" x2="270.062" y2="163.353"><stop offset="0" stop-color="#dae1e5"/><stop offset="1" stop-color="#c6d1d7"/></linearGradient><path fill="url(#B)" stroke="#2A2A2A" stroke-width=".575" d="M298.157 171.917c3.495-2.018 5.313-2.137 5.313-2.137l-69.992-26.295 42.468 41.277c.001.001 18.715-10.826 22.211-12.845z"/></g><g fill="#001321"><path opacity=".2" d="M189.809 272.977l43.142 17.642s25.873-6.972 99.188-1.932l-142.33-15.71zM233.478 368.082l47.085 15.133s37.638-24.901 94.723-47.868l-141.808 32.735zM431.52 364.691l-56.725 84.984s17.014-4.699 28.676-17.997 14.996-26.197 14.996-26.197l13.053-40.79z"/><path opacity=".2" d="M310.009 449.032c-3.559 2.055-3.873.189-3.873.189 32.277 13.889 48.537 8.688 50.109 8.429 21.687-3.593 33.964-10.83 42.9-21.524v-.003c8.297-7.614 14.791-17.946 19.09-30.693l.232.052 13.053-40.79 15.035-22.524a113.003 113.003 0 0 1-5.064 3.107 113.38 113.38 0 0 1-4.551 2.482l-.188.1-7.201 4.16-.211.124-.002-.001-5.533 3.198-.002-.062-13.562 7.83-106.116 72.421c-.001-.002 13.106 9.334 5.884 13.505zM189.808 187.678l46.421 24.028s25.806 4.28 71.732 16.786l-118.153-40.814zM233.479 143.485l40.037 42.685s24.248-11.524 38.31-13.251l-78.347-29.434zM175.604 202.177L136.362 327.41c25.221-39.094 39.653-53.36 39.653-53.36s.762 4.791-1.194-6.425c-2.697-15.477-5.527-48.083.783-65.448zM178.015 280.277l-17.167 107.33s15.107-40.924 31.506-64.814c-.001-.001-10.572-21.532-14.339-42.516zM221.684 374.892l-17.616 59.306c7.497-11.37 24.716-22.69 40.324-31.277-7.218-7.719-18.412-21.686-22.708-28.029z"/></g><g><path fill="#CFCFCF" stroke="#001321" stroke-width=".574" stroke-linecap="round" stroke-linejoin="round" d="M531.796 620.279c-5.35 0-9.687.353-9.687.783v1.783c0 .082.157.16.445.234v29.556c0 .412 4.138.746 9.241.746s9.24-.334 9.24-.746V623.08c.288-.074.445-.152.445-.234v-1.783c.001-.431-4.336-.784-9.684-.784z"/><path fill="none" stroke="#001321" stroke-width="1.149" stroke-linecap="round" stroke-linejoin="round" d="M447.525 215.315l-34.226 118.397M413.299 333.712L223.917 566.289M131.941 496.154l91.976 70.135M150.359 428.652l-18.418 67.502M223.917 566.289L187.384 701M131.941 496.154l281.358-162.442"/><path fill="none" stroke="#F7931E" stroke-width="1.5" stroke-linecap="round" stroke-linejoin="round" d="M522.867 493.901s-2.894 23.25-36.667 74.367c-36.35 55.017-50.401 62.069-50.401 62.069"/><path fill="none" stroke="#F7931E" stroke-width="1.438" stroke-linecap="round" stroke-linejoin="round" d="M440.983 650.387h74.967"/><path fill="#F7931E" d="M514.901 653.982l6.209-3.585-6.209-3.584z"/><path fill="none" stroke="red" stroke-width="1.5" stroke-linecap="round" stroke-linejoin="round" d="M541.036 650.387h60.669"/><path fill="red" d="M600.61 654.138l6.478-3.74-6.478-3.739z"/><linearGradient id="C" gradientUnits="userSpaceOnUse" x1="522.429" y1="638.094" x2="541.083" y2="638.094"><stop offset="0" stop-color="#8e8e8e"/><stop offset=".038" stop-color="#999"/><stop offset=".137" stop-color="#b1b1b1"/><stop offset=".242" stop-color="#c2c2c2"/><stop offset=".357" stop-color="#ccc"/><stop offset=".5" stop-color="#cfcfcf"/><stop offset=".643" stop-color="#ccc"/><stop offset=".758" stop-color="#c2c2c2"/><stop offset=".863" stop-color="#b1b1b1"/><stop offset=".962" stop-color="#999"/><stop offset="1" stop-color="#8e8e8e"/></linearGradient><path fill="url(#C)" stroke="#001321" stroke-width=".287" stroke-linecap="round" stroke-linejoin="round" d="M541.036 622.805v29.831c0 .412-4.138.746-9.24.746-5.104 0-9.241-.334-9.241-.746v-29.831h18.481z"/><linearGradient id="D" gradientUnits="userSpaceOnUse" x1="522.429" y1="622.346" x2="541.083" y2="622.346"><stop offset="0" stop-color="#8e8e8e"/><stop offset=".038" stop-color="#999"/><stop offset=".137" stop-color="#b1b1b1"/><stop offset=".242" stop-color="#c2c2c2"/><stop offset=".357" stop-color="#ccc"/><stop offset=".5" stop-color="#cfcfcf"/><stop offset=".643" stop-color="#ccc"/><stop offset=".758" stop-color="#c2c2c2"/><stop offset=".863" stop-color="#b1b1b1"/><stop offset=".962" stop-color="#999"/><stop offset="1" stop-color="#8e8e8e"/></linearGradient><path fill="url(#D)" stroke="#001321" stroke-width=".287" stroke-linecap="round" stroke-linejoin="round" d="M541.481 621.062v1.783c0 .432-4.338.782-9.686.782-5.35 0-9.687-.351-9.687-.782v-1.783h19.373z"/><ellipse fill="#CFCFCF" stroke="#001321" stroke-width=".287" stroke-linecap="round" stroke-linejoin="round" cx="531.795" cy="621.062" rx="9.686" ry=".783"/><g fill="#CFCFCF" stroke="#001321" stroke-width=".287" stroke-linecap="round" stroke-linejoin="round"><ellipse cx="527.041" cy="620.708" rx="2.422" ry=".332"/><ellipse cx="527.041" cy="620.101" rx="2.249" ry=".309"/><ellipse cx="527.041" cy="619.494" rx="2.076" ry=".285"/><ellipse cx="527.042" cy="618.888" rx="1.903" ry=".261"/><ellipse cx="527.041" cy="618.281" rx="1.73" ry=".237"/><ellipse cx="527.041" cy="617.674" rx="1.557" ry=".214"/><ellipse cx="527.041" cy="617.067" rx="1.384" ry=".189"/><ellipse cx="527.041" cy="616.461" rx="1.211" ry=".166"/></g><g fill="#CFCFCF" stroke="#001321" stroke-width=".287" stroke-linecap="round" stroke-linejoin="round"><ellipse cx="536.214" cy="620.708" rx="2.421" ry=".332"/><ellipse cx="536.214" cy="620.101" rx="2.249" ry=".309"/><ellipse cx="536.214" cy="619.494" rx="2.076" ry=".285"/><ellipse cx="536.215" cy="618.888" rx="1.902" ry=".261"/><ellipse cx="536.214" cy="618.281" rx="1.73" ry=".237"/><ellipse cx="536.215" cy="617.674" rx="1.557" ry=".214"/><ellipse cx="536.215" cy="617.067" rx="1.384" ry=".189"/><ellipse cx="536.215" cy="616.461" rx="1.211" ry=".166"/></g><circle fill="#CFCFCF" stroke="#001321" stroke-width=".5" stroke-linecap="round" stroke-linejoin="round" cx="440.984" cy="639.691" r="10.697"/><radialGradient id="E" cx="441.2" cy="640.068" r="9.667" gradientUnits="userSpaceOnUse"><stop offset="0" stop-color="#cfcfcf"/><stop offset=".49" stop-color="#cdcdcd"/><stop offset=".667" stop-color="#c6c6c6"/><stop offset=".793" stop-color="#bbb"/><stop offset=".895" stop-color="#aaa"/><stop offset=".981" stop-color="#949494"/><stop offset="1" stop-color="#8e8e8e"/></radialGradient><circle fill="url(#E)" stroke="#001321" stroke-width=".287" stroke-linecap="round" stroke-linejoin="round" cx="440.984" cy="639.691" r="8.975"/><path fill="#8E8E8E" stroke="#001321" stroke-width=".5" stroke-linecap="round" stroke-linejoin="round" d="M441.885 637.513h-1.851l-9.747 9.745v5.622h21.343v-5.622l-9.745-9.745zm6.302 11.923h-14.455v-.75l4.965-4.963a4.6 4.6 0 0 0 2.286.623c.824 0 1.585-.232 2.257-.606l4.947 4.946v.75z"/><circle fill="#CFCFCF" stroke="#001321" stroke-width=".5" stroke-linecap="round" stroke-linejoin="round" cx="440.984" cy="639.691" r="1.247"/></g><g><linearGradient id="F" gradientUnits="userSpaceOnUse" x1="434.217" y1="198.859" x2="452.248" y2="233.974"><stop offset="0" stop-color="#dae1e5"/><stop offset=".346" stop-color="#dae1e5"/><stop offset=".423" stop-color="#8ea3af"/><stop offset="1" stop-color="#c6d1d7"/></linearGradient><path fill="url(#F)" stroke="#000" stroke-width=".575" stroke-linecap="round" stroke-linejoin="round" d="M457.193 224.342c0 8.967-6.293 12.6-14.061 8.117-7.766-4.483-14.059-15.385-14.061-24.354 0-8.965 6.295-12.6 14.061-8.115 7.764 4.483 14.061 15.385 14.061 24.352z"/><path fill="#AABAC3" stroke="#000" stroke-width=".575" stroke-linecap="round" stroke-linejoin="round" d="M458.77 223.433c0 8.968-6.293 12.6-14.061 8.117-7.766-4.482-14.059-15.385-14.062-24.354 0-8.966 6.297-12.601 14.062-8.115 7.766 4.482 14.061 15.384 14.061 24.352z"/><path fill="#8EA3AF" stroke="#000" stroke-width=".575" stroke-linecap="round" stroke-linejoin="round" d="M456.115 221.899c0 7.275-5.105 10.223-11.406 6.584-6.299-3.636-11.406-12.479-11.406-19.755 0-7.273 5.107-10.221 11.406-6.584 6.301 3.637 11.406 12.482 11.406 19.755z"/><linearGradient id="G" gradientUnits="userSpaceOnUse" x1="440.609" y1="209.62" x2="446.797" y2="221.671"><stop offset="0" stop-color="#dae1e5"/><stop offset=".346" stop-color="#dae1e5"/><stop offset=".423" stop-color="#8ea3af"/><stop offset="1" stop-color="#c6d1d7"/></linearGradient><path fill="url(#G)" stroke="#000" stroke-width=".575" stroke-linecap="round" stroke-linejoin="round" d="M448.977 218.826c.004 3.302-2.314 4.638-5.172 2.988-2.859-1.65-5.178-5.664-5.18-8.966.002-3.3 2.32-4.638 5.18-2.986 2.857 1.65 5.172 5.663 5.172 8.964z"/><path fill="#8EA3AF" stroke="#000" stroke-width=".575" stroke-linecap="round" stroke-linejoin="round" d="M449.885 218.303c0 3.302-2.316 4.638-5.176 2.988-2.857-1.65-5.174-5.664-5.176-8.966 0-3.3 2.318-4.638 5.176-2.986 2.859 1.65 5.176 5.662 5.176 8.964z"/><linearGradient id="H" gradientUnits="userSpaceOnUse" x1="440.857" y1="204.634" x2="454.25" y2="230.715"><stop offset="0" stop-color="#c6d1d7"/><stop offset=".478" stop-color="#c6d1d7"/><stop offset=".72" stop-color="#8ea3af"/><stop offset="1" stop-color="#c6d1d7"/></linearGradient><path fill="url(#H)" stroke="#000" stroke-width=".575" stroke-linecap="round" stroke-linejoin="round" d="M456.795 229.611l-3.645-1.405v-17.644l-5.623-9.539-5.451 3.146v18.517c0 3.533 2.48 7.825 5.537 9.59 1.248.72 2.396.907 3.322.638.479-.139 5.86-3.303 5.86-3.303z"/><path fill="#8EA3AF" stroke="#000" stroke-width=".575" stroke-linecap="round" stroke-linejoin="round" d="M447.527 201.023l-.002 18.517c.002 3.533 2.48 7.825 5.537 9.59 3.059 1.765 5.539.336 5.537-3.197l.002-18.516-11.074-6.394z"/><path fill="#8EA3AF" stroke="#000" stroke-width=".575" stroke-linecap="round" stroke-linejoin="round" d="M449.85 208.725c0-1.96 1.379-2.755 3.074-1.775 1.697.98 3.074 3.364 3.074 5.323 0 1.96-1.377 2.754-3.074 1.774-1.695-.981-3.074-3.364-3.074-5.322z"/><linearGradient id="I" gradientUnits="userSpaceOnUse" x1="454.437" y1="214.982" x2="459.977" y2="225.773"><stop offset="0" stop-color="#c6d1d7"/><stop offset=".165" stop-color="#c6d1d7"/><stop offset=".736" stop-color="#8ea3af"/><stop offset="1" stop-color="#c6d1d7"/></linearGradient><path fill="url(#I)" stroke="#000" stroke-width=".575" stroke-linecap="round" stroke-linejoin="round" d="M456.172 228.227l.092-.052 11.115-6.415-6.043-11.072-11.262 6.5.006.013c-.904.422-1.482 1.439-1.48 2.958 0 2.849 1.998 6.313 4.463 7.737 1.182.683 2.252.758 3.049.354l.006.01.054-.033z"/><path fill="#8EA3AF" stroke="#000" stroke-width=".575" stroke-linecap="round" stroke-linejoin="round" d="M459.836 213.67c0-2.848 2-4.004 4.465-2.58 2.467 1.425 4.467 4.89 4.467 7.738 0 2.848-2 4.003-4.467 2.579-2.465-1.424-4.465-4.888-4.465-7.737zM451.432 208.691c0-1.475 1.035-2.073 2.312-1.335s2.312 2.53 2.312 4.004c0 1.476-1.035 2.072-2.312 1.335-1.277-.738-2.312-2.53-2.312-4.004z"/><defs><filter id="J" filterUnits="userSpaceOnUse" x="141.362" y="220.303" width="292.871" height="208.493"><feColorMatrix values="1 0 0 0 0 0 1 0 0 0 0 0 1 0 0 0 0 0 1 0"/></filter></defs><mask maskUnits="userSpaceOnUse" x="141.362" y="220.303" width="292.871" height="208.493" id="L"><g filter="url(#J)"><linearGradient id="K" gradientUnits="userSpaceOnUse" x1="330.669" y1="313.938" x2="482.669" y2="313.938"><stop offset="0" stop-color="#fff"/><stop offset="1"/></linearGradient><path fill="url(#K)" d="M440.654 265.375L138 440.111l.001-77.611 302.653-174.737z"/></g></mask><g mask="url(#L)" fill="none" stroke="#767676" stroke-width=".287" stroke-linecap="round" stroke-linejoin="round"><path d="M164.161 378.022l-13.802 50.63M150.156 389.785l-7.346 4.239.008.014c-.801.372-1.313 1.272-1.312 2.614 0 2.52 1.768 5.583 3.949 6.843 1.045.603 1.989.671 2.695.314l.005.007.05-.028.079-.046 7.513-4.335"/><path d="M150.756 373.844l-.599.345-.001 16.377c.001 3.122 2.193 6.918 4.896 8.48 1.103.635 2.12.802 2.937.563.423-.124 5.183-2.923 5.183-2.923"/><path d="M154.975 384.434v3.349c.001 3.123 2.193 6.919 4.896 8.479 2.704 1.562 4.897.299 4.897-2.827"/><path d="M172.409 392.782c-2.281 1.772-5.676 1.771-9.469-.417-6.867-3.964-12.434-13.605-12.435-21.537 0-4.377 1.696-7.317 4.369-8.406"/><path d="M173.933 373.619c1.772 3.504 2.836 7.297 2.836 10.764 0 7.93-5.566 11.144-12.435 7.177-6.867-3.965-12.434-13.605-12.435-21.536 0-7.93 5.567-11.144 12.435-7.176 2.986 1.724 5.726 4.521 7.87 7.783"/><path d="M172.262 374.576c1.353 2.763 2.16 5.73 2.16 8.45-.002 6.434-4.516 9.04-10.088 5.823-5.571-3.216-10.087-11.037-10.086-17.471 0-6.434 4.515-9.039 10.086-5.822 2.339 1.351 4.493 3.513 6.204 6.043"/><path d="M167.146 382.999c-.837.758-2.144.8-3.613-.049-2.527-1.459-4.577-5.009-4.578-7.928.001-1.695.692-2.806 1.767-3.151"/><path d="M168.264 376.764c.411 1.029.646 2.092.646 3.083.002 2.919-2.048 4.1-4.577 2.642-2.528-1.459-4.576-5.008-4.579-7.929.001-2.917 2.051-4.103 4.579-2.642.813.47 1.577 1.155 2.238 1.967"/><path d="M205.948 351.152l-42.187 24.354c0 .001-.888.455-.051 1.904.837 1.45 1.774 1.081 1.774 1.081l41.064-23.705m109.939-67.445l-40.348 23.292m4.584 1.336l41.577-24.001m3.472-2.004l108.318-62.529m-1.723-2.989l-110.753 63.935"/></g><path opacity=".1" fill="none" stroke="#000" stroke-width=".287" stroke-linecap="round" stroke-linejoin="round" d="M276.139 310.632l-69.837 40.316M280.723 311.969l-74.175 42.817M317.042 287.02l4.065-2.346M325.772 285.964l-3.472 2.003"/><path fill="none" stroke="#001321" stroke-width="1.149" stroke-linecap="round" stroke-linejoin="round" d="M442.521 232.628l1.172-4.054"/></g><g><defs><filter id="M" filterUnits="userSpaceOnUse" x="406.398" y="102.741" width="136" height="213.49"><feColorMatrix values="1 0 0 0 0 0 1 0 0 0 0 0 1 0 0 0 0 0 1 0"/></filter></defs><mask maskUnits="userSpaceOnUse" x="406.398" y="102.741" width="136" height="213.49" id="O"><g filter="url(#M)"><linearGradient id="N" gradientUnits="userSpaceOnUse" x1="471.456" y1="222.664" x2="413.988" y2="108.303"><stop offset="0" stop-color="#fff"/><stop offset="1"/></linearGradient><path fill="url(#N)" d="M490.314 321.677L265.276 191.751l171.726-99.144 225.035 129.926z"/></g></mask><path opacity=".25" mask="url(#O)" fill="#00D12E" d="M463.432 113.326c-10.902-6.297-21.266-9.744-30.713-10.585l-26.32 15.195c9.447.841 19.812 4.288 30.715 10.584 43.611 25.177 78.969 86.405 78.969 136.766 0 12.66-2.25 23.405-6.287 32.031-1.508 3.221-3.262 6.149-5.25 8.76-3.203 4.208-6.994 7.617-11.295 10.153l25.48-14.711.146-.086c.027-.014.051-.031.076-.045 14.477-8.17 23.445-25.929 23.445-51.296 0-50.36-35.357-111.589-78.966-136.766z"/><path opacity=".75" fill="#00D12E" d="M504.545 306.078c-3.064.393-6.262.475-9.58.23-6.502-.479-13.457-2.194-20.732-5.241l9.582-5.531-49.275-4.395 3.797 30.652 9.59-5.538c17.33 7.26 32.863 7.003 44.711.314.102-.059.207-.107.311-.167l.303-.174 25.48-14.711c-4.281 2.379-9.046 3.902-14.187 4.561z"/><defs><filter id="P" filterUnits="userSpaceOnUse" x="20.293" y="60.54" width="253.706" height="139.993"><feColorMatrix values="1 0 0 0 0 0 1 0 0 0 0 0 1 0 0 0 0 0 1 0"/></filter></defs><mask maskUnits="userSpaceOnUse" x="20.293" y="60.54" width="253.706" height="139.993" id="R"><g filter="url(#P)"><linearGradient id="Q" gradientUnits="userSpaceOnUse" x1="140.464" y1="127.08" x2="91.277" y2="41.886"><stop offset="0" stop-color="#fff"/><stop offset="1"/></linearGradient><path fill="url(#Q)" d="M199.635 222.48L-13.828 99.237 86.766 41.159l213.462 123.242z"/></g></mask><path opacity=".75" mask="url(#R)" fill="#29ABE2" d="M135.498 127.336c22.013 12.727 48.535 8.567 95.263 35.065l-9.246 5.338L274 176.144l-12.4-31.546-10.41 6.009c-55.401-31.504-86.984-26.639-113.039-41.703L54.389 60.54 20.293 80.225l82.281 47.477c26.863 15.532 23.896 36.876 73.703 66.157l-9.286 5.36 8.212 1.314c3.049-9.216 6.996-17.448 11.725-24.661-30.716-20.893-31.388-36.949-51.43-48.536z"/><path opacity=".2" fill="#29ABE2" d="M207.076 176.077l-10.369 5.987a180.38 180.38 0 0 1-9.779-6.192c-4.729 7.213-8.676 15.445-11.725 24.661l44.271 7.092-12.398-31.548z"/></g><g><path fill="none" stroke="#000" stroke-width=".287" d="M216.215 564.486l-43.873 70.692h-14.769M177.5 234.131L113.667 199H98.896M277.556 158.871L257.01 53.102h-14.769M346.122 271.739l16.905-231.111h14.77M497.184 53.102l-14.77.001-57.689 101.064"/><text transform="translate(31.481 202.498)" font-family="'Helvetica'" font-size="18">Rudder</text><text transform="translate(206.944 57.97)" font-family="'Helvetica'" font-size="18">Sail</text><text transform="translate(384.361 44.352)" font-family="'Helvetica'" font-size="18">Axle</text><text transform="translate(500.916 56.42)"><tspan x="0" y="0" font-family="'Helvetica'" font-size="18">Helium or hydrogen</tspan><tspan x="0" y="19.6" font-family="'Helvetica'" font-size="18">inflated bladder</tspan></text><text transform="translate(103.765 638.6)" font-family="'Helvetica'" font-size="18">Tether</text><text transform="translate(638.57 641.273)"><tspan x="0" y="0" font-family="'Helvetica'" font-size="14">To</tspan><tspan x="-23.394" y="12.8" font-family="'Helvetica'" font-size="14">power grid</tspan><tspan x="-25.448" y="25.6" font-family="'Helvetica'" font-size="14">or batteries</tspan></text><text transform="translate(493.826 670.72)" font-family="'Helvetica'" font-size="14">Transformer</text><text transform="translate(417.412 670.72)" font-family="'Helvetica'" font-size="14">Winch</text><text transform="translate(344.63 516.77)"><tspan x="0" y="0" fill="#231F20" font-family="'Helvetica'" font-size="12">Generators convert</tspan><tspan x="0" y="16.8" fill="#231F20" font-family="'Helvetica'" font-size="12">rotational energy</tspan><tspan x="0" y="35.6" fill="#231F20" font-family="'Helvetica'" font-size="12">into electricity which</tspan><tspan x="0" y="52.4" fill="#231F20" font-family="'Helvetica'" font-size="12">is transmitted</tspan><tspan x="0" y="69.2" fill="#231F20" font-family="'Helvetica'" font-size="12">down the tether</tspan></text><text transform="translate(554.398 443.83)"><tspan x="0" y="0" font-family="'Helvetica'" font-size="14">Airborne wind</tspan><tspan x="25.669" y="14.8" font-family="'Helvetica'" font-size="14">generator</tspan></text><text transform="translate(578.29 521.831)"><tspan x="0" y="0" fill="#00B42E" font-family="'Helvetica'" font-size="14">Rotational</tspan><tspan x="20.234" y="14.8" fill="#00B42E" font-family="'Helvetica'" font-size="14">energy</tspan></text><text transform="translate(554.373 256.729)"><tspan x="0" y="0" fill="#00B42E" font-family="'Helvetica'" font-size="18">Rotational</tspan><tspan x="0" y="21.6" fill="#00B42E" font-family="'Helvetica'" font-size="18">energy</tspan></text><text transform="translate(151.338 106.177)" fill="#238FBD" font-family="'Helvetica'" font-size="18">Wind</text><text transform="translate(458.749 452.236)" fill="#238FBD" font-family="'Helvetica'" font-size="14">Wind</text><path fill="none" stroke="#000" stroke-width=".287" d="M565.607 130.422H550.84l-86.836 86.02"/><text transform="translate(570.39 135.697)" font-family="'Helvetica'" font-size="18">Generator</text></g></svg>